# xmcd
#
# Track frame offsets:
#	150
#	19848
#	43761
#	65082
#	70168
#	90632
#	112936
#	142892
#	147402
#	176271
#	197321
#	207819
#	227336
#
# Disc length: 3432 seconds
#
# Revision: 1
# Processed by: cddbd v1.5PL3 Copyright (c) Steve Scherf et al.
# Submitted via: audiograbber 1.83.01
#
DISCID=aa0d660d
DTITLE=Mary Chapin Carpenter - MCC At The BBC. Vol 2
DYEAR=2001
DGENRE=Country
TTITLE0=Intro/Passionate Kisses
TTITLE1=The Hard Way
TTITLE2=Swept Away
TTITLE3=Interview
TTITLE4=Whenever You're Ready
TTITLE5=I Take My Chances
TTITLE6=The Dreaming Road
TTITLE7=Interview
TTITLE8=Band Intros/Shut Up and Kiss Me
TTITLE9=The Long Way Home
TTITLE10=Interview
TTITLE11=He Thinks He'll Keep Her
TTITLE12=Late For Your Life
EXTD=Recorded at\nThe Barbican Centre\nYork\nEngland\n17 May 2001
EXTT0=
EXTT1=
EXTT2=
EXTT3=
EXTT4=
EXTT5=
EXTT6=
EXTT7=
EXTT8=
EXTT9=
EXTT10=
EXTT11=
EXTT12=
PLAYORDER=
